# Blender 3.1.0
# www.blender.org
mtllib EnemyCOntiune.mtl
o Cube
v 0.000000 4.833381 -0.328148
v 0.000000 4.268793 -0.321364
v 0.000000 4.823724 0.314147
v 0.000000 4.268793 0.321364
v -0.501101 4.621944 -0.175212
v -0.321069 4.268793 -0.251238
v -0.485998 4.638272 0.175935
v -0.321069 4.268793 0.251238
v 0.000000 3.609595 -0.321364
v 0.000000 3.609595 0.321364
v -0.464534 3.746654 -0.251238
v -0.464533 3.746654 0.251238
v -0.306962 2.977209 -0.173457
v -0.307990 2.988589 0.174003
v -0.568953 2.971503 -0.136093
v -0.569757 2.980400 0.135546
v -0.497503 2.096172 -0.162185
v -0.498530 2.107553 0.185276
v -0.759494 2.090466 -0.124821
v -0.760297 2.099363 0.146818
v 0.000000 4.321527 -0.321998
v -0.319373 4.397642 0.182968
v 0.000000 4.320625 0.320690
v -0.322889 4.379599 -0.168382
v -0.414817 4.328653 0.188053
v -0.573652 4.574527 0.182189
v -0.588678 4.560742 -0.169070
v -0.418317 4.312786 -0.163402
v -0.983748 4.055904 0.105994
v -1.044577 4.150067 0.103749
v -1.050332 4.144788 -0.030775
v -0.985088 4.049828 -0.028604
v 0.000000 4.995172 0.162110
v -0.273194 4.987114 0.090089
v 0.000000 4.995592 -0.172586
v -0.281064 4.986404 -0.092892
v 0.000000 5.153305 0.162097
v -0.278115 5.145247 0.090075
v 0.000000 5.153725 -0.172600
v -0.285985 5.144537 -0.092905
v 0.000000 5.347962 0.162078
v -0.103715 5.339903 0.090057
v 0.000000 5.348382 -0.172618
v -0.111585 5.339194 -0.092924
v 0.501101 4.621944 -0.175212
v 0.321069 4.268793 -0.251238
v 0.485998 4.638272 0.175935
v 0.321069 4.268793 0.251238
v 0.464534 3.746654 -0.251238
v 0.464533 3.746654 0.251238
v 0.306962 2.977209 -0.173457
v 0.307990 2.988589 0.174003
v 0.568953 2.971503 -0.136093
v 0.569757 2.980400 0.135546
v 0.497503 2.096172 -0.162185
v 0.498530 2.107553 0.185276
v 0.759494 2.090466 -0.124821
v 0.760297 2.099363 0.146818
v 0.319373 4.397642 0.182968
v 0.322889 4.379599 -0.168382
v 0.414817 4.328653 0.188053
v 0.573652 4.574527 0.182189
v 0.588678 4.560742 -0.169070
v 0.418317 4.312786 -0.163402
v 0.983748 4.055904 0.105994
v 1.044577 4.150067 0.103749
v 1.050332 4.144788 -0.030775
v 0.985088 4.049828 -0.028604
v 0.273194 4.987114 0.090089
v 0.281064 4.986404 -0.092892
v 0.278115 5.145247 0.090075
v 0.285985 5.144537 -0.092905
v 0.103715 5.339903 0.090057
v 0.111585 5.339194 -0.092924
vn -0.8573 0.5147 0.0129
vn -0.3935 0.0120 0.9192
vn -0.5887 0.8083 -0.0123
vn -0.2130 0.0585 -0.9753
vn -0.4312 -0.0108 -0.9022
vn -0.1875 -0.1378 0.9726
vn -0.1493 -0.0000 0.9888
vn -0.9643 0.2649 -0.0000
vn -0.1466 0.0443 0.9882
vn -0.9907 0.1360 -0.0000
vn 0.9010 -0.4334 0.0169
vn -0.1373 -0.1274 -0.9823
vn 0.0264 -0.9991 0.0328
vn -0.9774 0.2113 -0.0098
vn 0.9774 -0.2113 0.0098
vn -0.1415 0.0179 -0.9898
vn -0.2134 -0.0117 -0.9769
vn -0.9999 -0.0164 -0.0000
vn -0.2134 0.0127 0.9769
vn -0.1682 -0.1379 -0.9761
vn 0.5744 -0.8178 0.0362
vn -0.0365 -0.0479 -0.9982
vn 0.0245 0.0397 0.9989
vn -0.8241 -0.5654 0.0337
vn -0.1179 -0.0525 0.9916
vn 0.4277 -0.9032 0.0365
vn -0.6695 0.7428 -0.0005
vn -0.9986 -0.0311 0.0431
vn -0.2216 0.6750 -0.7038
vn -0.3970 0.4404 0.8052
vn -0.7445 0.6670 0.0294
vn -0.2547 -0.0078 0.9670
vn -0.2684 -0.0001 -0.9633
vn -0.0783 0.9969 0.0012
vn -0.2504 0.2244 0.9418
vn -0.5812 -0.0001 -0.8138
vn 0.8573 0.5147 0.0129
vn 0.3935 0.0120 0.9192
vn 0.5887 0.8083 -0.0123
vn 0.2130 0.0585 -0.9753
vn 0.2147 -0.1849 -0.9590
vn 0.1875 -0.1378 0.9726
vn 0.2130 0.0585 0.9753
vn 0.9643 0.2649 -0.0000
vn 0.1466 0.0443 0.9882
vn 0.9907 0.1360 -0.0000
vn -0.8959 -0.4443 -0.0000
vn 0.1872 -0.1367 -0.9728
vn -0.0264 -0.9991 0.0328
vn 0.9774 0.2113 -0.0098
vn -0.9774 -0.2113 0.0098
vn 0.1415 0.0179 -0.9898
vn 0.2650 0.5746 -0.7743
vn 0.9998 0.0180 0.0091
vn 0.2134 0.0127 0.9769
vn 0.1682 -0.1379 -0.9761
vn -0.5744 -0.8177 0.0362
vn 0.0214 -0.0439 -0.9988
vn -0.0333 0.0522 0.9981
vn 0.8392 -0.5408 0.0571
vn 0.1179 -0.0525 0.9916
vn -0.4277 -0.9032 0.0365
vn 0.6695 0.7428 -0.0005
vn 0.9986 -0.0311 0.0431
vn 0.4260 0.4362 -0.7926
vn 0.3970 0.4404 0.8052
vn 0.7445 0.6670 0.0294
vn 0.2547 -0.0078 0.9670
vn 0.2725 -0.0086 -0.9621
vn 0.0823 0.9966 -0.0003
vn 0.2504 0.2244 0.9418
vn 0.2677 0.2398 -0.9332
vn -0.8494 0.5266 0.0345
vn -0.2258 -0.1281 0.9657
vn -0.5732 0.8194 -0.0076
vn -0.1493 -0.0000 -0.9888
vn -0.2147 -0.1849 -0.9590
vn -0.1402 -0.1290 0.9817
vn -0.2130 0.0585 0.9753
vn -0.9912 0.1324 -0.0073
vn 0.8959 -0.4443 -0.0000
vn -0.1872 -0.1367 -0.9728
vn -0.2650 0.5746 -0.7743
vn -0.9998 0.0180 0.0091
vn -0.2578 0.4550 0.8523
vn 0.5866 -0.8093 0.0307
vn -0.0214 -0.0439 -0.9988
vn 0.0333 0.0522 0.9981
vn -0.8392 -0.5408 0.0571
vn -0.4260 0.4362 -0.7926
vn -0.2119 0.6484 0.7312
vn -0.2507 0.0001 0.9681
vn -0.2725 -0.0086 -0.9621
vn -0.0823 0.9966 -0.0003
vn -0.5704 0.0001 0.8214
vn -0.2677 0.2398 -0.9332
vn 0.8494 0.5266 0.0345
vn 0.2258 -0.1281 0.9657
vn 0.5732 0.8194 -0.0076
vn 0.1493 -0.0000 -0.9888
vn 0.4312 -0.0108 -0.9022
vn 0.1402 -0.1290 0.9817
vn 0.1493 -0.0000 0.9888
vn 0.9912 0.1324 -0.0073
vn -0.9010 -0.4334 0.0169
vn 0.1373 -0.1274 -0.9823
vn 0.2134 -0.0117 -0.9769
vn 0.9999 -0.0164 -0.0000
vn 0.2578 0.4550 0.8523
vn -0.5866 -0.8093 0.0307
vn 0.0365 -0.0479 -0.9982
vn -0.0245 0.0397 0.9989
vn 0.8241 -0.5654 0.0337
vn 0.2216 0.6750 -0.7038
vn 0.2119 0.6484 0.7312
vn 0.2507 0.0001 0.9681
vn 0.2684 -0.0001 -0.9633
vn 0.0783 0.9969 0.0012
vn 0.5704 0.0001 0.8214
vn 0.5812 -0.0001 -0.8138
vt 0.625000 0.500000
vt 0.375000 0.500000
vt 0.625000 0.750000
vt 0.375000 0.750000
vt 0.875000 0.500000
vt 0.625000 0.250000
vt 0.375000 0.250000
vt 0.875000 0.750000
vt 0.625000 1.000000
vt 0.375000 0.000000
vt 0.375000 1.000000
vt 0.375000 0.500000
vt 0.000000 0.000000
vt 0.000000 0.000000
vt 0.375000 0.750000
vt 0.375000 0.250000
vt 0.375000 1.000000
vt 0.375000 0.000000
vt 0.000000 0.000000
vt 0.375000 0.500000
vt 0.375000 0.750000
vt 0.000000 0.000000
vt 0.375000 0.250000
vt 0.375000 1.000000
vt 0.375000 0.000000
vt 0.000000 0.000000
vt 0.375000 0.500000
vt 0.375000 0.750000
vt 0.000000 0.000000
vt 0.125000 0.500000
vt 0.375000 0.250000
vt 0.375000 1.000000
vt 0.125000 0.750000
vt 0.375000 0.000000
vt 0.398351 0.500000
vt 0.398351 0.000000
vt 0.398351 1.000000
vt 0.398351 0.750000
vt 0.398351 0.250000
vt 0.398351 1.000000
vt 0.398351 0.000000
vt 0.875000 0.750000
vt 0.625000 1.000000
vt 0.625000 0.250000
vt 0.875000 0.500000
vt 0.398351 0.250000
vt 0.398351 1.000000
vt 0.398351 0.000000
vt 0.625000 0.000000
vt 0.625000 1.000000
vt 0.875000 0.750000
vt 0.625000 0.250000
vt 0.875000 0.500000
vt 0.398351 0.250000
vt 0.625000 0.750000
vt 0.875000 0.750000
vt 0.625000 1.000000
vt 0.625000 0.500000
vt 0.875000 0.500000
vt 0.625000 0.250000
vt 0.625000 0.750000
vt 0.875000 0.750000
vt 0.625000 1.000000
vt 0.625000 0.500000
vt 0.875000 0.500000
vt 0.625000 0.250000
vt 0.625000 0.750000
vt 0.875000 0.750000
vt 0.625000 1.000000
vt 0.625000 0.500000
vt 0.875000 0.500000
vt 0.625000 0.250000
vt 0.875000 0.500000
vt 0.625000 0.250000
vt 0.375000 0.250000
vt 0.875000 0.750000
vt 0.625000 1.000000
vt 0.375000 0.000000
vt 0.375000 1.000000
vt 0.375000 0.250000
vt 0.375000 1.000000
vt 0.375000 0.000000
vt 0.375000 0.500000
vt 0.000000 0.000000
vt 0.375000 0.750000
vt 0.000000 0.000000
vt 0.375000 0.250000
vt 0.375000 1.000000
vt 0.375000 0.000000
vt 0.000000 0.000000
vt 0.375000 0.500000
vt 0.375000 0.750000
vt 0.000000 0.000000
vt 0.125000 0.500000
vt 0.375000 0.250000
vt 0.375000 1.000000
vt 0.125000 0.750000
vt 0.375000 0.000000
vt 0.398351 0.000000
vt 0.398351 1.000000
vt 0.398351 0.250000
vt 0.398351 1.000000
vt 0.398351 0.000000
vt 0.875000 0.750000
vt 0.625000 1.000000
vt 0.625000 0.250000
vt 0.875000 0.500000
vt 0.398351 0.250000
vt 0.398351 1.000000
vt 0.398351 0.000000
vt 0.625000 0.000000
vt 0.625000 1.000000
vt 0.875000 0.750000
vt 0.625000 0.250000
vt 0.875000 0.500000
vt 0.398351 0.250000
vt 0.875000 0.750000
vt 0.625000 1.000000
vt 0.875000 0.500000
vt 0.625000 0.250000
vt 0.875000 0.750000
vt 0.625000 1.000000
vt 0.875000 0.500000
vt 0.625000 0.250000
vt 0.875000 0.750000
vt 0.625000 1.000000
vt 0.875000 0.500000
vt 0.625000 0.250000
s 0
usemtl Material
f 7/8/1 36/59/1 5/5/1
f 3/3/2 22/37/2 23/38/2
f 5/5/3 26/42/3 7/8/3
f 2/2/4 11/16/4 6/7/4
f 24/39/5 1/1/5 21/35/5
f 12/17/6 14/21/6 10/15/6
f 4/4/7 12/17/7 10/15/7
f 6/7/8 12/18/8 8/10/8
f 16/24/9 18/28/9 14/21/9
f 11/16/10 16/25/10 12/18/10
f 9/13/11 14/22/11 13/19/11
f 11/16/12 13/20/12 15/23/12
f 17/27/13 20/33/13 19/30/13
f 15/23/14 20/34/14 16/25/14
f 13/19/15 18/29/15 17/26/15
f 15/23/16 17/27/16 19/31/16
f 6/7/17 21/35/17 2/2/17
f 8/10/18 24/39/18 6/7/18
f 23/38/19 8/11/19 4/4/19
f 27/44/20 32/54/20 31/52/20
f 22/36/21 28/46/21 24/39/21
f 5/6/22 28/46/22 27/44/22
f 22/37/23 26/43/23 25/40/23
f 29/48/24 31/52/24 32/54/24
f 25/40/25 30/50/25 29/47/25
f 25/41/26 32/54/26 28/46/26
f 27/45/27 30/51/27 26/42/27
f 34/56/28 40/65/28 36/59/28
f 1/1/29 36/60/29 35/58/29
f 3/3/30 34/57/30 7/9/30
f 38/62/31 44/71/31 40/65/31
f 33/55/32 38/63/32 34/57/32
f 35/58/33 40/66/33 39/64/33
f 43/70/34 42/68/34 41/67/34
f 37/61/35 42/69/35 38/63/35
f 39/64/36 44/72/36 43/70/36
f 70/119/37 47/76/37 45/73/37
f 59/100/38 3/3/38 23/38/38
f 62/104/39 45/73/39 47/76/39
f 49/80/40 2/2/40 46/75/40
f 60/101/41 1/1/41 45/74/41
f 52/85/42 50/81/42 10/15/42
f 4/4/43 50/81/43 48/79/43
f 50/82/44 46/75/44 48/78/44
f 56/92/45 54/88/45 52/85/45
f 54/89/46 49/80/46 50/82/46
f 9/13/47 52/86/47 10/14/47
f 49/80/48 51/83/48 9/12/48
f 58/97/49 55/91/49 57/94/49
f 58/98/50 53/87/50 54/89/50
f 51/84/51 56/93/51 52/86/51
f 53/87/52 55/91/52 51/83/52
f 46/75/53 21/35/53 60/101/53
f 48/78/54 60/101/54 59/99/54
f 48/79/55 23/38/55 4/4/55
f 63/106/56 68/116/56 64/108/56
f 64/108/57 59/99/57 60/101/57
f 45/74/58 64/108/58 60/101/58
f 59/100/59 62/105/59 47/77/59
f 65/110/60 67/114/60 66/111/60
f 61/102/61 66/112/61 62/105/61
f 68/116/62 61/103/62 64/108/62
f 66/113/63 63/107/63 62/104/63
f 72/123/64 69/117/64 70/119/64
f 1/1/65 70/120/65 45/74/65
f 69/118/66 3/3/66 47/77/66
f 74/127/67 71/121/67 72/123/67
f 71/122/68 33/55/68 69/118/68
f 35/58/69 72/124/69 70/120/69
f 43/70/70 73/125/70 74/127/70
f 73/126/71 37/61/71 71/122/71
f 39/64/72 74/128/72 72/124/72
f 7/8/73 34/56/73 36/59/73
f 3/3/74 7/9/74 22/37/74
f 5/5/75 27/45/75 26/42/75
f 2/2/76 9/12/76 11/16/76
f 24/39/77 5/6/77 1/1/77
f 12/17/78 16/24/78 14/21/78
f 4/4/79 8/11/79 12/17/79
f 6/7/8 11/16/8 12/18/8
f 16/24/9 20/32/9 18/28/9
f 11/16/80 15/23/80 16/25/80
f 9/13/81 10/14/81 14/22/81
f 11/16/82 9/12/82 13/20/82
f 17/27/13 18/28/13 20/33/13
f 15/23/14 19/31/14 20/34/14
f 13/19/15 14/22/15 18/29/15
f 15/23/16 13/20/16 17/27/16
f 6/7/83 24/39/83 21/35/83
f 8/10/84 22/36/84 24/39/84
f 23/38/85 22/37/85 8/11/85
f 27/44/20 28/46/20 32/54/20
f 22/36/86 25/41/86 28/46/86
f 5/6/87 24/39/87 28/46/87
f 22/37/88 7/9/88 26/43/88
f 29/48/89 30/49/89 31/52/89
f 25/40/25 26/43/25 30/50/25
f 25/41/26 29/48/26 32/54/26
f 27/45/27 31/53/27 30/51/27
f 34/56/28 38/62/28 40/65/28
f 1/1/90 5/6/90 36/60/90
f 3/3/91 33/55/91 34/57/91
f 38/62/31 42/68/31 44/71/31
f 33/55/92 37/61/92 38/63/92
f 35/58/93 36/60/93 40/66/93
f 43/70/94 44/71/94 42/68/94
f 37/61/95 41/67/95 42/69/95
f 39/64/96 40/66/96 44/72/96
f 70/119/97 69/117/97 47/76/97
f 59/100/98 47/77/98 3/3/98
f 62/104/99 63/107/99 45/73/99
f 49/80/100 9/12/100 2/2/100
f 60/101/101 21/35/101 1/1/101
f 52/85/102 54/88/102 50/81/102
f 4/4/103 10/15/103 50/81/103
f 50/82/44 49/80/44 46/75/44
f 56/92/45 58/96/45 54/88/45
f 54/89/104 53/87/104 49/80/104
f 9/13/105 51/84/105 52/86/105
f 49/80/106 53/87/106 51/83/106
f 58/97/49 56/92/49 55/91/49
f 58/98/50 57/95/50 53/87/50
f 51/84/51 55/90/51 56/93/51
f 53/87/52 57/95/52 55/91/52
f 46/75/107 2/2/107 21/35/107
f 48/78/108 46/75/108 60/101/108
f 48/79/109 59/100/109 23/38/109
f 63/106/56 67/114/56 68/116/56
f 64/108/110 61/103/110 59/99/110
f 45/74/111 63/106/111 64/108/111
f 59/100/112 61/102/112 62/105/112
f 65/110/113 68/116/113 67/114/113
f 61/102/61 65/109/61 66/112/61
f 68/116/62 65/110/62 61/103/62
f 66/113/63 67/115/63 63/107/63
f 72/123/64 71/121/64 69/117/64
f 1/1/114 35/58/114 70/120/114
f 69/118/115 33/55/115 3/3/115
f 74/127/67 73/125/67 71/121/67
f 71/122/116 37/61/116 33/55/116
f 35/58/117 39/64/117 72/124/117
f 43/70/118 41/67/118 73/125/118
f 73/126/119 41/67/119 37/61/119
f 39/64/120 43/70/120 74/128/120
