# Blender 3.1.0
# www.blender.org
mtllib House.mtl
o Cube
v 4.000000 6.609362 -3.000000
v 4.000000 -0.050638 -3.000000
v 4.000000 6.609362 3.000000
v 4.000000 -0.050638 3.000000
v -4.113708 6.723070 -3.113708
v -4.000000 -0.050638 -3.000000
v -4.000000 6.609362 3.000000
v -4.000000 -0.050638 3.000000
vn -0.0000 3.3300 -0.0000
vn -0.0000 -0.0000 3.0000
vn -4.0000 -0.0000 -0.0000
vn -0.0000 -3.3300 -0.0000
vn 4.0000 -0.0000 -0.0000
vn -0.0000 -0.0000 -3.0000
vn 0.0661 3.3291 0.0496
vn -3.9992 -0.0457 0.0412
vn 0.0735 -0.0612 -2.9990
vt 1.525239 -0.478677
vt -0.468742 -0.457487
vt -0.495015 1.556341
vt -0.468742 1.529068
vt -0.495015 -0.484760
vt 1.551807 1.552219
vt -0.476167 -0.478677
vt -0.448757 -0.556333
vt 1.517813 -0.457487
vt -0.498363 1.574470
vt -0.473206 1.552219
vt 1.517813 1.529068
vt 1.525239 1.522729
vt 1.517775 -0.460371
vt 1.546086 1.556341
vt 1.551807 -0.472794
vt 1.517775 1.531952
vt 1.546086 -0.484760
vt -0.476167 1.522729
vt 1.545629 -0.556333
vt -0.474548 -0.460371
vt -0.474548 1.531952
vt 1.496023 1.574470
vt -0.473207 -0.472794
s 0
usemtl Wall
f 1/1/1 7/19/1 3/7/1
f 3/8/2 8/23/2 4/10/2
f 7/21/3 6/17/3 8/22/3
f 2/6/4 8/24/4 6/16/4
f 1/2/5 4/12/5 2/4/5
f 6/18/6 1/3/6 2/5/6
f 1/1/7 5/13/7 7/19/7
f 3/8/2 7/20/2 8/23/2
f 7/21/8 5/14/8 6/17/8
f 2/6/4 4/11/4 8/24/4
f 1/2/5 3/9/5 4/12/5
f 6/18/9 5/15/9 1/3/9
o Cube.001
v -4.392691 6.595273 3.850405
v -0.064103 9.302230 0.000000
v -4.392691 6.595273 -3.850405
v 4.264485 6.595273 3.850405
v 4.264485 6.595273 -3.850405
vn -3.8716 0.6053 -0.0000
vn -0.0000 0.6053 -3.4439
vn 3.8716 0.6053 -0.0000
vn -0.0000 0.6053 3.4439
vn -0.0000 -1.3535 -0.0000
vt 1.171484 0.004585
vt 1.094436 1.004795
vt 0.125000 0.750000
vt 0.499082 1.122106
vt 0.514034 0.010245
vt 0.468204 0.995242
vt 0.462166 -0.188578
vt -0.124651 -0.007525
vt 0.000133 0.997160
vt 0.125000 0.500000
vt -0.065973 0.000854
vt -0.180158 1.021469
vt 0.375000 0.750000
vt 0.996989 1.008616
vt 1.062799 0.006005
vt 0.375000 0.500000
s 0
usemtl Roof
f 9/25/10 10/28/10 11/32/10
f 11/33/11 10/29/11 13/38/11
f 13/39/12 10/30/12 12/35/12
f 12/36/13 10/31/13 9/26/13
f 13/40/14 9/27/14 11/34/14
f 13/40/14 12/37/14 9/27/14
o Cube.002
v -2.958451 3.735268 3.099314
v -2.958451 5.160564 3.099314
v -2.958451 3.735268 2.857235
v -2.958451 5.160564 2.857235
v -1.498573 3.735268 3.099314
v -1.498573 5.160564 3.099314
v -1.498573 3.735268 2.857235
v -1.498573 5.160564 2.857235
vn -0.7299 -0.0000 -0.0000
vn -0.0000 -0.0000 -0.1210
vn 0.7299 -0.0000 -0.0000
vn -0.0000 -0.0000 0.1210
vn -0.0000 -0.7126 -0.0000
vn -0.0000 0.7126 -0.0000
vt -2.974136 1.004841
vt 1.002088 1.004841
vt 0.008032 2.044123
vt -2.974136 -0.034440
vt 1.002088 -0.034440
vt 0.008032 -1.073721
vt -0.986024 2.044122
vt -1.980080 1.004841
vt -1.980080 -0.034440
vt -0.986023 -1.073722
vt 0.008032 1.004841
vt 0.008032 -0.034440
vt -0.986024 1.004841
vt -0.986023 -0.034440
s 0
usemtl Window
f 15/44/15 16/48/15 14/41/15
f 17/49/16 20/53/16 16/48/16
f 21/54/17 18/51/17 20/53/17
f 19/52/18 14/42/18 18/51/18
f 20/53/19 14/43/19 16/47/19
f 17/50/20 19/52/20 21/54/20
f 15/44/15 17/49/15 16/48/15
f 17/49/16 21/54/16 20/53/16
f 21/54/17 19/52/17 18/51/17
f 19/52/18 15/45/18 14/42/18
f 20/53/19 18/51/19 14/43/19
f 17/50/20 15/46/20 19/52/20
o Cube.004
v -0.822917 -0.027361 3.059968
v -2.235034 -0.027360 3.059968
v -0.822917 -0.027361 2.848242
v -2.235034 -0.027360 2.848242
v -0.822917 2.914676 3.059968
v -2.235034 2.914676 3.059968
v -0.822917 2.914676 2.848242
v -2.235034 2.914676 2.848242
vn -0.0000 -1.5033 -0.0000
vn -0.0000 -0.0000 -0.1059
vn -0.0000 1.5033 -0.0000
vn -0.0000 -0.0000 0.1059
vn 0.9176 -0.0000 -0.0000
vn -0.9176 -0.0000 -0.0000
vt -0.007341 0.007576
vt 1.000000 -0.002441
vt 0.125000 0.750000
vt 0.046211 0.007576
vt 0.000000 -0.002441
vt 0.875000 0.750000
vt 0.375000 0.250000
vt 0.125000 0.500000
vt -0.007341 0.997304
vt 0.046211 0.997304
vt 0.625000 0.250000
vt 0.875000 0.500000
vt 1.000000 0.997559
vt 0.974533 0.985091
vt 0.375000 0.750000
vt 1.000732 0.985091
vt 0.000000 0.997559
vt 0.625000 0.750000
vt 0.974533 0.015256
vt 0.375000 0.500000
vt 0.625000 0.500000
vt 1.000732 0.015256
s 0
usemtl door
f 23/58/21 24/63/21 22/55/21
f 25/65/22 28/74/22 24/61/22
f 29/76/23 26/68/23 28/73/23
f 27/71/24 22/56/24 26/67/24
f 28/74/25 22/57/25 24/62/25
f 25/66/26 27/72/26 29/75/26
f 23/58/21 25/64/21 24/63/21
f 25/65/22 29/75/22 28/74/22
f 29/76/23 27/70/23 26/68/23
f 27/71/24 23/59/24 22/56/24
f 28/74/25 26/69/25 22/57/25
f 25/66/26 23/60/26 27/72/26
o Cube.003
v 0.934501 3.735268 3.099314
v 0.934501 5.160564 3.099314
v 0.934501 3.735268 2.857235
v 0.934501 5.160564 2.857235
v 2.394379 3.735268 3.099314
v 2.394379 5.160564 3.099314
v 2.394379 3.735268 2.857235
v 2.394379 5.160564 2.857235
vn -0.7299 -0.0000 -0.0000
vn -0.0000 -0.0000 -0.1210
vn 0.7299 -0.0000 -0.0000
vn -0.0000 -0.0000 0.1210
vn -0.0000 -0.7126 -0.0000
vn -0.0000 0.7126 -0.0000
vt -2.974136 1.004841
vt 1.002088 1.004841
vt 0.008032 2.044123
vt -2.974136 -0.034440
vt 1.002088 -0.034440
vt 0.008032 -1.073721
vt -0.986024 2.044122
vt -1.980080 1.004841
vt -1.980080 -0.034440
vt -0.986023 -1.073722
vt 0.008032 1.004841
vt 0.008032 -0.034440
vt -0.986024 1.004841
vt -0.986023 -0.034440
s 0
usemtl Window.004
f 31/80/27 32/84/27 30/77/27
f 33/85/28 36/89/28 32/84/28
f 37/90/29 34/87/29 36/89/29
f 35/88/30 30/78/30 34/87/30
f 36/89/31 30/79/31 32/83/31
f 33/86/32 35/88/32 37/90/32
f 31/80/27 33/85/27 32/84/27
f 33/85/28 37/90/28 36/89/28
f 37/90/29 35/88/29 34/87/29
f 35/88/30 31/81/30 30/78/30
f 36/89/31 34/87/31 30/79/31
f 33/86/32 31/82/32 35/88/32
