# 3ds Max Wavefront OBJ Exporter v0.99 - (c)2007 guruware
# File Created: 04.10.2021 17:39:09

mtllib Tetrahedron.mtl

#
# object Cone_001
#

v  1.4305 -1.1645 0.8259
v  0.0000 1.1645 -0.0000
v  -1.4305 -1.1645 0.8259
v  0.0000 -1.1645 -1.6518
# 4 vertices

vn -0.0000 0.3342 0.9425
vn 0.8162 0.3342 -0.4712
vn -0.8162 0.3342 -0.4712
vn 0.0000 -1.0000 0.0000
# 4 vertex normals

vt 0.1994 0.6794 0.0000
vt 0.3995 0.3336 0.0000
vt 0.5997 0.6794 0.0000
vt 0.0000 0.3322 0.0000
vt 0.7990 0.3322 0.0000
vt 1.0000 0.6784 0.0000
# 6 texture coords

o Cone_001
g Cone_001
usemtl None
s 1
f 1/1/1 2/2/1 3/3/1 
f 4/4/2 2/2/2 1/1/2 
f 3/3/3 2/2/3 4/5/3 
f 4/5/4 1/6/4 3/3/4 
# 0 polygons - 4 triangles

